<svg version="1.1" xmlns="http://www.w3.org/2000/svg" width="110" height="110" font-size="10px" font-family="sans-serif">
  <g>
  <defs>
    <pattern id="blue-grid" width="25" height="25" patternUnits="userSpaceOnUse">
      <rect fill="#069af3" x="0" y="0" width="25" height="25" />
    </pattern>
    <pattern id="green-grid" width="25" height="25" patternUnits="userSpaceOnUse">
      <rect fill="#2ecc71" x="0" y="0" width="25" height="25" />
    </pattern>
  </defs>
  <rect fill="url(#blue-grid)"  x="0" y="0" width="100" height="100"/>
  <rect fill="url(#green-grid)" x="50" y="50" width="50" height="50"/>
  <rect fill="url(#green-grid)" x="0" y="75" width="100" height="25"/>
  <text x="0.0" y="0.0">
      <tspan x =  "9.0" y = "15.0">s<tspan baseline-shift="sub" font-size="6">0</tspan></tspan>
      <tspan x = "34.0" y = "15.0">s<tspan baseline-shift="sub" font-size="6">1</tspan></tspan>
      <tspan x = "59.0" y = "15.0">s<tspan baseline-shift="sub" font-size="6">2</tspan></tspan>
      <tspan x = "84.0" y = "15.0">s<tspan baseline-shift="sub" font-size="6">3</tspan></tspan>
      <tspan x =  "9.0" y = "40.0">s<tspan baseline-shift="sub" font-size="6">4</tspan></tspan>
      <tspan x = "34.0" y = "40.0">s<tspan baseline-shift="sub" font-size="6">5</tspan></tspan>
      <tspan x = "59.0" y = "40.0">s<tspan baseline-shift="sub" font-size="6">6</tspan></tspan>
      <tspan x = "84.0" y = "40.0">s<tspan baseline-shift="sub" font-size="6">7</tspan></tspan>
      <tspan x =  "9.0" y = "65.0">s<tspan baseline-shift="sub" font-size="6">8</tspan></tspan>
      <tspan x = "34.0" y = "65.0">s<tspan baseline-shift="sub" font-size="6">9</tspan></tspan>
      <tspan x = "59.0" y = "65.0">s<tspan baseline-shift="sub" font-size="6">10</tspan></tspan>
      <tspan x = "84.0" y = "65.0">s<tspan baseline-shift="sub" font-size="6">11</tspan></tspan>
      <tspan x =  "9.0" y = "90.0">s<tspan baseline-shift="sub" font-size="6">12</tspan></tspan>
      <tspan x = "34.0" y = "90.0">s<tspan baseline-shift="sub" font-size="6">13</tspan></tspan>
      <tspan x = "59.0" y = "90.0">s<tspan baseline-shift="sub" font-size="6">14</tspan></tspan>
      <tspan x = "84.0" y = "90.0">s<tspan baseline-shift="sub" font-size="6">15</tspan></tspan>
  </text>
  </g>
</svg>
